<svg xmlns="http://www.w3.org/2000/svg" width="256" height="256" viewBox="0 0 256 256">
  <defs>
    <linearGradient id="gold" x1="0" y1="0" x2="1" y2="1">
      <stop offset="0" stop-color="#f2d27d"/>
      <stop offset="1" stop-color="#d4af37"/>
    </linearGradient>
    <radialGradient id="glow" cx="30%" cy="15%" r="80%">
      <stop offset="0" stop-color="#f2d27d" stop-opacity="0.35"/>
      <stop offset="1" stop-color="#000" stop-opacity="0"/>
    </radialGradient>
  </defs>

  <rect x="18" y="18" width="220" height="220" rx="64" fill="#0f0f12" stroke="rgba(212,175,55,.60)" stroke-width="6"/>
  <rect x="30" y="30" width="196" height="196" rx="56" fill="url(#glow)"/>

  <path d="M72 118l16-28 16 18 24-34 24 34 16-18 16 28" fill="none" stroke="url(#gold)" stroke-width="8" stroke-linecap="round" stroke-linejoin="round"/>
  <path d="M84 118c3 22 22 38 44 38h0c22 0 41-16 44-38" fill="none" stroke="rgba(244,240,232,.55)" stroke-width="2" stroke-linecap="round"/>

  <path d="M76 186V118l52 52 52-52v68" fill="none" stroke="url(#gold)" stroke-width="10" stroke-linecap="round" stroke-linejoin="round"/>
  <path d="M98 186V150l30 30 30-30v36" fill="none" stroke="rgba(244,240,232,.65)" stroke-width="3" stroke-linecap="round" stroke-linejoin="round"/>
</svg>
